<svg xmlns="http://www.w3.org/2000/svg"  viewBox="0 0 325.424 287.642">
  <g id="white_Logotipo_VertigemAzul_2017outline_1_" data-name="white_Logotipo_VertigemAzul_2017outline (1)" transform="translate(-340.581 -228.094)">
    <g id="Group_2" data-name="Group 2" transform="translate(447.395 499.507)">
      <g id="Group_1" data-name="Group 1">
        <path id="Path_1" data-name="Path 1" d="M391.687,372.067v-1.2a16.183,16.183,0,0,0,5.424.875q4.911,0,4.91-3.721,0-2.732-3.194-2.734h-3.213q-4.364,0-4.364-3.938,0-4.484,6.4-4.484a19.629,19.629,0,0,1,5.087.658v1.094a17.031,17.031,0,0,0-5.087-.763q-5.249,0-5.249,3.5,0,2.843,3.215,2.846h3.213q4.341,0,4.345,3.826,0,4.7-6.058,4.7A21,21,0,0,1,391.687,372.067Z" transform="translate(-391.251 -356.824)" fill="#fff"/>
        <path id="Path_2" data-name="Path 2" d="M399.715,356.919v15.639h-1.149V356.919Z" transform="translate(-383.146 -356.765)" fill="#fff"/>
        <path id="Path_3" data-name="Path 3" d="M401.03,372.558V356.919h1.476l10.445,13.69v-13.69h1.039v15.639h-.928l-10.991-14.352v14.352Z" transform="translate(-380.416 -356.765)" fill="#fff"/>
        <path id="Path_4" data-name="Path 4" d="M421.155,372.066a14.774,14.774,0,0,1-4.374.658q-8.2,0-8.2-8.148,0-7.709,8.2-7.709a14.774,14.774,0,0,1,4.374.658v.984a14.074,14.074,0,0,0-4.157-.658q-7.273,0-7.273,6.723,0,7.165,7.273,7.163a14.076,14.076,0,0,0,4.157-.658Z" transform="translate(-372.051 -356.823)" fill="#fff"/>
        <path id="Path_5" data-name="Path 5" d="M426.4,356.919v.984h-9.121v6.233h8.748v.987h-8.748v6.453h9.273v.987H416.127V356.923l10.27,0Z" transform="translate(-363.688 -356.765)" fill="#fff"/>
        <path id="Path_6" data-name="Path 6" d="M426.576,372.617V358.276h-1.638v-.645l2.787-.765v15.751Z" transform="translate(-353.925 -356.824)" fill="#fff"/>
        <path id="Path_7" data-name="Path 7" d="M439.449,362.976q0,6.081-7.2,10.093l-.613-.841q4.917-2.874,6.061-5.894a11.787,11.787,0,0,1-3.9.689q-5.73,0-5.73-4.922,0-5.249,5.609-5.249Q439.448,356.849,439.449,362.976Zm-5.862-5.141q-4.411,0-4.408,4.265,0,3.937,4.614,3.938a11.207,11.207,0,0,0,4.2-.746,4.849,4.849,0,0,0,.413-2.251Q438.412,357.834,433.586,357.834Z" transform="translate(-350.45 -356.839)" fill="#fff"/>
        <path id="Path_8" data-name="Path 8" d="M445.728,362.976q0,6.081-7.2,10.093l-.613-.841q4.914-2.874,6.061-5.894a11.8,11.8,0,0,1-3.9.689q-5.73,0-5.732-4.922,0-5.249,5.609-5.249Q445.728,356.849,445.728,362.976Zm-5.862-5.141q-4.408,0-4.406,4.265,0,3.937,4.615,3.938a11.2,11.2,0,0,0,4.2-.746,4.823,4.823,0,0,0,.413-2.251Q444.691,357.834,439.866,357.834Z" transform="translate(-343.495 -356.839)" fill="#fff"/>
        <path id="Path_9" data-name="Path 9" d="M440.631,368a3.446,3.446,0,0,1,2.755-3.512,3.564,3.564,0,0,1-2.319-3.645q0-4,5.249-4t5.249,4a3.561,3.561,0,0,1-2.374,3.645A3.456,3.456,0,0,1,452,368q0,4.746-5.685,4.745T440.631,368Zm10.222.065q0-3.086-4.623-3.086-4.452,0-4.452,3.086,0,3.7,4.593,3.7Q450.852,371.764,450.853,368.067Zm-.436-7q0-3.194-4.187-3.2-4.016,0-4.014,3.2,0,2.934,4.155,2.932Q450.418,364,450.416,361.066Z" transform="translate(-336.537 -356.846)" fill="#fff"/>
      </g>
    </g>
    <g id="Group_5" data-name="Group 5" transform="translate(340.581 453.763)">
      <g id="Group_4" data-name="Group 4">
        <g id="Group_3" data-name="Group 3">
          <path id="Path_10" data-name="Path 10" d="M369.853,335.242l-12.907,29.439h-3.4l-12.969-29.439h2.367l12.372,27.773,12.229-27.773Z" transform="translate(-340.581 -335.04)" fill="#fff"/>
          <path id="Path_11" data-name="Path 11" d="M375.7,335.242v1.853h-17.17v11.733H375v1.853H358.533v12.146h17.457v1.853H356.37V335.242Z" transform="translate(-323.086 -335.04)" fill="#fff"/>
          <path id="Path_12" data-name="Path 12" d="M368.559,364.681V335.242h12.146q7.984,0,7.987,7.064,0,6.115-8.666,8.664l9.944,13.711h-2.964l-9.779-13.649V349.57q9.059-1.337,9.058-7.1,0-5.315-5.928-5.314h-9.634v27.527l-2.165,0Z" transform="translate(-309.581 -335.04)" fill="#fff"/>
          <path id="Path_13" data-name="Path 13" d="M401.285,335.242v1.853H391.2v27.586h-2.161V337.095h-9.882v-1.853Z" transform="translate(-297.84 -335.04)" fill="#fff"/>
          <path id="Path_14" data-name="Path 14" d="M393.962,335.242v29.439H391.8V335.242Z" transform="translate(-283.828 -335.04)" fill="#fff"/>
          <path id="Path_15" data-name="Path 15" d="M419.625,363.634A22.991,22.991,0,0,1,411.741,365q-15.791,0-15.789-15.336,0-14.514,15.439-14.514a27.817,27.817,0,0,1,8.234,1.235v1.853A26.505,26.505,0,0,0,411.8,337q-13.692,0-13.69,12.661,0,13.489,13.3,13.483a23.355,23.355,0,0,0,6.052-.909V351.405h2.161v12.229Z" transform="translate(-279.228 -335.146)" fill="#fff"/>
          <path id="Path_16" data-name="Path 16" d="M429.492,335.242v1.853h-17.17v11.733H428.79v1.853H412.322v12.146h17.457v1.853H410.159V335.242Z" transform="translate(-263.487 -335.04)" fill="#fff"/>
          <path id="Path_17" data-name="Path 17" d="M422.347,364.681V335.242h2.161l13.279,26.909,12.454-26.909H452.2v29.439H450.24V339.218l-11.693,25.463h-1.771L424.3,339.009v25.672Z" transform="translate(-249.982 -335.04)" fill="#fff"/>
          <path id="Path_18" data-name="Path 18" d="M445.6,364.681h-2.306l13.318-29.439h2.574l13.382,29.439h-2.574l-4.364-9.882h-13.2l.639-1.853h11.754l-7.062-16.017Z" transform="translate(-226.772 -335.04)" fill="#fff"/>
          <path id="Path_19" data-name="Path 19" d="M479.429,335.242v1.853l-17.851,25.733h17.435v1.853H458.84v-1.644l18.4-25.941H459.251v-1.853Z" transform="translate(-209.547 -335.04)" fill="#fff"/>
          <path id="Path_20" data-name="Path 20" d="M471.488,353.317V335.243h2.159v18.074q0,9.717,9.678,9.716T493,353.317V335.243h2.159v18.074q0,11.57-11.834,11.569T471.488,353.317Z" transform="translate(-195.532 -335.039)" fill="#fff"/>
          <path id="Path_21" data-name="Path 21" d="M488,335.242v27.586H505.05v1.853H485.844V335.242Z" transform="translate(-179.626 -335.04)" fill="#fff"/>
        </g>
      </g>
    </g>
    <g id="Group_9" data-name="Group 9" transform="translate(401.636 228.094)">
      <g id="Group_6" data-name="Group 6" transform="translate(33.499 22.2)">
        <path id="Path_22" data-name="Path 22" d="M385.435,311.052a65.957,65.957,0,0,1,20.047-47.422c3.232,2.778,6.7,8.723,5.04,11.986a55.3,55.3,0,0,0,.11,50.605c-3.447,5.139-3.078,17.737,1.393,22.208-2.336-9.851,9.857-21.409,19.609-16.493.706-10.057-16.864-4.146-16.263-14.337.23-4.206,2.127-12.838,4.138-16.7,3.459-6.632,10.9-10.315,13.306-11.208,11.116-4.248,13.711-5.69,27.276-8.464,4.172-.835,20.579,1.5,21.978.1l.171-1.442c-2.308-2.331-5.578-3.906-8.086-6.077-1.8-1.568-2.774-4.64-4.471-6.411-7.625-7.985-16.468-8.723-26.922-8.122-6.347.369-13.394,4.707-18.97,4.743-4.768,0-9.922-2.593-15.018-3.383a66.111,66.111,0,0,1,87.93,98.7c-3.082-2.922-6.1-8.417-4.511-11.506a55.162,55.162,0,0,0-.131-50.565c3.47-5.141,3.071-17.8-1.406-22.248,2.34,9.853-9.855,21.409-19.565,16.535-.7,10.022,16.864,4.1,16.263,14.295-.268,4.206-2.144,12.895-4.176,16.734a16.689,16.689,0,0,1-2.8,3.244c-1.2,1.2-8.251,7.393-10.658,8.325-11.158,4.25-13.563,5.306-27.088,8.038-4.172.868-20.606-1.5-22.016-.1l-.162,1.467c2.334,2.34,5.578,3.908,8.122,6.082,1.8,1.537,2.768,4.606,4.435,6.377,7.614,8.019,16.537,8.748,26.922,8.152,6.352-.371,13.434-4.743,18.977-4.743,4.454,0,9.254,2.256,14.023,3.189a66.116,66.116,0,0,1-107.493-51.552" transform="translate(-385.435 -231.651)" fill="#fff"/>
        <path id="Path_23" data-name="Path 23" d="M446.325,337.771c-.66-.2-2.7-5.685-3.811-6.644a28.11,28.11,0,0,1-5.97-6.3,6.269,6.269,0,0,0-4.927-2.73,21.053,21.053,0,0,0-7.808,1.872c-3.139,1.611,1.667,5.85-1.465,7.378-.234-3.763-5.78-5.437-8.358-3,.571-2.146,4.313-4.437,6.451-4.311a19.142,19.142,0,0,1,15.161-8.82c1.537-.07,2.943-3.071,2.772-4.376l.306-.535c1.8,1.771,1.575,4.912,2.7,6.916.974,1.667,3.508,3.033,4.743,4.874,1.975,3.038,3.31,5.846,2.239,9.528-.27.795-1,1.63-1.176,2.433-.2,1.136-.131,2.409-.432,3.508Z" transform="translate(-353.8 -159.198)" fill="#fff"/>
        <path id="Path_24" data-name="Path 24" d="M473.858,313.261c-.641.285-5.723-2.614-7.191-2.635a28.122,28.122,0,0,1-8.62-.972,6.224,6.224,0,0,0-5.527,1.067,20.652,20.652,0,0,0-4.762,6.47c-1.377,3.242,5.04,3.394,3.626,6.6-2.6-2.738-7.935-.451-8.331,3.076-.94-2.009.449-6.181,2.159-7.452a19.16,19.16,0,0,1,5.93-16.506c1.136-1.037.28-4.241-.687-5.133l-.116-.6c2.521.2,4.364,2.747,6.518,3.558,1.815.651,4.644.065,6.773.679,3.468,1.058,6.3,2.346,7.844,5.843.3.786.285,1.9.662,2.62.58,1,1.45,1.922,1.931,2.96Z" transform="translate(-321.929 -173.758)" fill="#fff"/>
        <path id="Path_25" data-name="Path 25" d="M428.127,317.159c.634-.285,5.7,2.656,7.165,2.679a28.1,28.1,0,0,1,8.618,1.046,6.207,6.207,0,0,0,5.531-1.029,22.223,22.223,0,0,0,2.979-3.322,21.377,21.377,0,0,0,1.836-3.105c1.406-3.236-5.011-3.438-3.573-6.621,2.591,2.755,7.935.506,8.365-3.014.923,2.007-.491,6.172-2.224,7.431a19.15,19.15,0,0,1-6.065,16.466c-1.14,1.024-.308,4.237.658,5.131l.1.613c-2.509-.221-4.343-2.787-6.484-3.615-1.809-.658-4.64-.1-6.769-.732-3.455-1.09-6.28-2.4-7.787-5.907-.308-.8-.276-1.9-.654-2.631-.573-1-1.438-1.939-1.908-2.977Z" transform="translate(-338.363 -166.418)" fill="#fff"/>
        <path id="Path_26" data-name="Path 26" d="M446.96,311.569c.312-.624,6.08-1.661,7.216-2.584a28.426,28.426,0,0,1,7.254-4.777,6.241,6.241,0,0,0,3.558-4.355,22.9,22.9,0,0,0,.122-4.461,22.548,22.548,0,0,0-.6-3.558c-1.022-3.375-6.048.613-7.009-2.749,3.757.432,6.379-4.73,4.435-7.692,2,.936,3.613,5.028,3.105,7.106a19.126,19.126,0,0,1,6.014,16.478c-.2,1.522,2.5,3.438,3.82,3.493l.476.4c-2.064,1.459-5.11.681-7.287,1.444-1.8.658-3.607,2.918-5.635,3.813-3.335,1.4-6.343,2.23-9.771.531-.744-.407-1.431-1.273-2.192-1.585-1.088-.4-2.334-.559-3.377-1.046Z" transform="translate(-317.264 -191.237)" fill="#fff"/>
        <path id="Path_27" data-name="Path 27" d="M461.414,241.171v.333h-.164l-.331.032c-.335,0-.263.371-.263.6v1.977l.3.034c.169,0,.3-.034.464-.034v.472a1.6,1.6,0,0,0-.759-.04v1.939c0,.333.04.472.4.472l.261.032v.335h-2.5v-.335h.234c.373-.032.472-.032.472-.468v-4.581c0-.4-.04-.43-.432-.47h-.236v-.3h2.559Zm0-2.54a5.749,5.749,0,0,0,0,11.5v-.8a4.933,4.933,0,0,1,0-9.859Zm0,5.949v-.472a1.192,1.192,0,0,0,1.136-1.343,1.13,1.13,0,0,0-1.136-1.269v-.331h.209c1.366,0,2.066.432,2.066,1.467a1.7,1.7,0,0,1-1.57,1.667c.668.133,1.008.871,1.271,1.406.272.6.4,1.271,1.01,1.271v.335h-1.073c-.5,0-.738-.706-1.067-1.37-.474-.862-.474-1.231-.845-1.362m0,5.54a5.749,5.749,0,0,0,0-11.5v.835a4.934,4.934,0,0,1,0,9.857Z" transform="translate(-307.501 -238.625)" fill="#fff"/>
      </g>
      <g id="Group_7" data-name="Group 7" transform="translate(124.064 19.543)">
        <path id="Path_28" data-name="Path 28" d="M481.052,274.674c-.31.624-6.067,1.674-7.205,2.591a27.945,27.945,0,0,1-7.243,4.787,6.247,6.247,0,0,0-3.554,4.376,21.818,21.818,0,0,0-.107,4.452,22.575,22.575,0,0,0,.6,3.558c1.033,3.375,6.048-.628,7.009,2.732-3.744-.428-6.368,4.741-4.408,7.7-2.015-.932-3.63-5.023-3.126-7.1a19.133,19.133,0,0,1-6.039-16.468c.2-1.526-2.509-3.434-3.822-3.485l-.481-.4c2.062-1.463,5.11-.694,7.283-1.455,1.809-.666,3.6-2.93,5.624-3.822,3.335-1.406,6.341-2.239,9.769-.55.744.4,1.438,1.271,2.2,1.581,1.09.392,2.346.55,3.379,1.035Z" transform="translate(-401.497 -200.476)" fill="#fff"/>
        <path id="Path_29" data-name="Path 29" d="M463.125,242.335c.164.67-3.569,5.179-3.847,6.626a28.013,28.013,0,0,1-2.46,8.318,6.221,6.221,0,0,0,.093,5.633,22.375,22.375,0,0,0,2.783,3.482,21.46,21.46,0,0,0,2.755,2.331c2.958,1.92,4.227-4.37,7.129-2.42-3.147,2.091-1.821,7.726,1.573,8.74-2.138.58-6.008-1.516-6.963-3.428a19.172,19.172,0,0,1-15.226-8.721c-.82-1.3-4.123-1.01-5.167-.209l-.611,0c.635-2.443,3.461-3.82,4.631-5.8.953-1.676.879-4.562,1.847-6.545,1.644-3.221,3.4-5.791,7.129-6.706a25.821,25.821,0,0,0,2.694-.207c1.081-.4,2.15-1.086,3.259-1.377Z" transform="translate(-412.014 -232.166)" fill="#fff"/>
        <path id="Path_30" data-name="Path 30" d="M456.847,289.437c-.169-.679,3.609-5.156,3.891-6.6a28.011,28.011,0,0,1,2.532-8.3,6.243,6.243,0,0,0-.046-5.633,23.036,23.036,0,0,0-2.761-3.512,22.2,22.2,0,0,0-2.734-2.346c-2.943-1.944-4.262,4.345-7.146,2.374,3.16-2.074,1.88-7.728-1.514-8.763,2.144-.559,5.991,1.562,6.938,3.48a19.15,19.15,0,0,1,15.148,8.837c.82,1.3,4.121,1.046,5.171.242l.618.006c-.651,2.437-3.487,3.792-4.684,5.763-.963,1.667-.909,4.547-1.891,6.533-1.667,3.211-3.457,5.765-7.172,6.651a24.914,24.914,0,0,0-2.7.179c-1.081.392-2.152,1.075-3.263,1.362Z" transform="translate(-405.493 -216.09)" fill="#fff"/>
        <path id="Path_31" data-name="Path 31" d="M455.5,265.779c-.559-.415-.576-6.273-1.28-7.551a28.194,28.194,0,0,1-3.434-7.975,6.234,6.234,0,0,0-3.685-4.26,22.412,22.412,0,0,0-4.366-.9,21.174,21.174,0,0,0-3.6-.03c-3.506.424-.449,6.061-3.927,6.423,1.083-3.624-3.546-7.108-6.8-5.7,1.271-1.809,5.574-2.684,7.532-1.819a19.111,19.111,0,0,1,17.269-3.05c1.461.462,3.82-1.872,4.111-3.154l.472-.4c1.081,2.285-.219,5.154.152,7.427.335,1.893,2.241,4.058,2.766,6.212.8,3.529,1.094,6.632-1.176,9.707-.531.656-1.5,1.185-1.946,1.883-.573,1.01-.953,2.207-1.615,3.143Z" transform="translate(-428.397 -237.365)" fill="#fff"/>
      </g>
      <path id="Path_32" data-name="Path 32" d="M424.683,228.094c.561.4.622,6.261,1.343,7.538a27.883,27.883,0,0,1,3.5,7.945,6.2,6.2,0,0,0,3.714,4.233,22.41,22.41,0,0,0,4.378.864,22.872,22.872,0,0,0,3.6,0c3.5-.453.4-6.067,3.877-6.455-1.05,3.626,3.607,7.075,6.849,5.647-1.258,1.826-5.555,2.73-7.519,1.887a19.161,19.161,0,0,1-17.258,3.194c-1.461-.457-3.8,1.893-4.085,3.183l-.464.4c-1.1-2.281.175-5.148-.219-7.422-.35-1.9-2.281-4.045-2.821-6.193-.833-3.52-1.143-6.617,1.1-9.712.514-.658,1.492-1.2,1.92-1.9.571-1,.94-2.211,1.589-3.156Z" transform="translate(-314.791 -228.094)" fill="#fff"/>
      <path id="Path_33" data-name="Path 33" d="M388.77,237.3c.687-.044,4.509,4.391,5.881,4.9a28.262,28.262,0,0,1,7.781,3.826,6.218,6.218,0,0,0,5.565.86,20.669,20.669,0,0,0,6.67-4.477c2.395-2.591-3.592-4.905-1.185-7.435,1.537,3.459,7.315,3.1,8.883-.078.219,2.2-2.5,5.666-4.549,6.28a19.121,19.121,0,0,1-11.158,13.538c-1.421.592-1.689,3.908-1.075,5.061l-.1.6c-2.308-1.035-3.177-4.049-4.931-5.546-1.492-1.221-4.353-1.627-6.145-2.924-2.9-2.165-5.139-4.336-5.409-8.15a27.038,27.038,0,0,0,.253-2.7c-.217-1.128-.71-2.3-.814-3.436Z" transform="translate(-348.612 -220.562)" fill="#fff"/>
      <path id="Path_34" data-name="Path 34" d="M435.979,253.169c-.7.046-4.473-4.423-5.841-4.945a28.069,28.069,0,0,1-7.762-3.894,6.229,6.229,0,0,0-5.559-.9,22.5,22.5,0,0,0-3.921,2.125,21.157,21.157,0,0,0-2.778,2.3c-2.409,2.578,3.56,4.939,1.132,7.441-1.507-3.47-7.292-3.149-8.887.019-.192-2.207,2.553-5.645,4.6-6.25a19.14,19.14,0,0,1,11.267-13.451c1.421-.58,1.716-3.885,1.109-5.051l.105-.613c2.3,1.058,3.147,4.085,4.893,5.588,1.482,1.235,4.336,1.661,6.117,2.97,2.882,2.182,5.106,4.37,5.348,8.19a26.186,26.186,0,0,0-.278,2.692c.207,1.134.7,2.31.793,3.447Z" transform="translate(-333.191 -226.039)" fill="#fff"/>
      <path id="Path_35" data-name="Path 35" d="M409.978,251.731c-.5.483-6.274-.483-7.663,0a28.317,28.317,0,0,1-8.436,2.045,6.234,6.234,0,0,0-4.817,2.911,22.143,22.143,0,0,0-1.623,4.159,21.33,21.33,0,0,0-.637,3.552c-.175,3.523,5.907,1.461,5.666,4.95-3.381-1.672-7.6,2.3-6.763,5.753-1.575-1.558-1.712-5.951-.531-7.734a19.1,19.1,0,0,1-.1-17.541c.7-1.364-1.2-4.085-2.416-4.585l-.316-.527c2.433-.685,5.047,1.073,7.342,1.1,1.929-.013,4.378-1.533,6.6-1.686,3.613-.2,6.718.04,9.366,2.789a25.624,25.624,0,0,0,1.535,2.237c.892.742,2.011,1.313,2.827,2.121Z" transform="translate(-355.359 -210.395)" fill="#fff"/>
      <g id="Group_8" data-name="Group 8" transform="translate(0 49.899)">
        <path id="Path_36" data-name="Path 36" d="M369.623,275.179c.5-.483,6.273.479,7.658-.013a27.8,27.8,0,0,1,8.43-2.064,6.212,6.212,0,0,0,4.811-2.922,22.489,22.489,0,0,0,1.613-4.161,21.811,21.811,0,0,0,.628-3.556c.169-3.525-5.9-1.45-5.681-4.941,3.39,1.667,7.6-2.317,6.756-5.757,1.575,1.554,1.718,5.943.548,7.732a19.134,19.134,0,0,1,.131,17.537c-.7,1.368,1.2,4.085,2.416,4.585l.316.525c-2.426.683-5.044-1.071-7.346-1.084-1.925.013-4.374,1.537-6.588,1.7-3.615.2-6.718-.027-9.37-2.772-.565-.637-.925-1.68-1.539-2.23-.89-.738-2.017-1.309-2.831-2.112Z" transform="translate(-369.51 -251.765)" fill="#fff"/>
        <path id="Path_37" data-name="Path 37" d="M371.756,313.622c.065-.683,5.1-3.666,5.85-4.935,2.409-4.064,2.591-4.275,5.127-6.992a6.249,6.249,0,0,0,1.811-5.335,22.994,22.994,0,0,0-1.442-4.229,22.489,22.489,0,0,0-1.811-3.118c-2.135-2.812-5.456,2.681-7.523-.124,3.67-.909,4.326-6.664,1.467-8.763,2.2.173,5.139,3.455,5.388,5.576a19.132,19.132,0,0,1,11.394,13.344c.335,1.5,3.55,2.34,4.8,1.939l.573.207c-1.421,2.091-4.536,2.424-6.314,3.9-1.469,1.254-2.367,4-3.948,5.542-2.635,2.483-5.158,4.3-8.965,3.908-.841-.124-1.792-.689-2.612-.725-1.153.015-2.382.308-3.525.209Z" transform="translate(-367.093 -220.341)" fill="#fff"/>
        <path id="Path_38" data-name="Path 38" d="M395.287,268.308c-.076.683-5.139,3.632-5.894,4.884a27.884,27.884,0,0,1-5.182,6.965,6.244,6.244,0,0,0-1.853,5.316,23.649,23.649,0,0,0,1.414,4.235,21.636,21.636,0,0,0,1.783,3.137c2.116,2.818,5.477-2.652,7.521.171-3.674.885-4.374,6.638-1.528,8.759-2.209-.2-5.116-3.489-5.363-5.616a19.165,19.165,0,0,1-11.28-13.432c-.327-1.5-3.525-2.374-4.781-1.977l-.582-.219c1.44-2.072,4.566-2.384,6.354-3.839,1.476-1.242,2.388-3.98,3.99-5.506,2.656-2.466,5.192-4.267,9-3.841a25.847,25.847,0,0,0,2.6.744c1.149,0,2.388-.287,3.527-.179Z" transform="translate(-369.544 -234.571)" fill="#fff"/>
        <path id="Path_39" data-name="Path 39" d="M390.97,292.368c.394.576-1.562,6.1-1.332,7.549a28.134,28.134,0,0,1,.546,8.664,6.248,6.248,0,0,0,2.022,5.251,22.518,22.518,0,0,0,3.82,2.321,20.844,20.844,0,0,0,3.377,1.24c3.451.786,2.473-5.55,5.862-4.722-2.234,3.05.947,7.888,4.492,7.669-1.813,1.273-6.166.649-7.713-.831a19.12,19.12,0,0,1-17.29-2.953c-1.225-.923-4.229.472-4.939,1.581l-.573.217c-.247-2.511,1.941-4.775,2.363-7.037.32-1.9-.744-4.579-.51-6.784.432-3.6,1.2-6.617,4.38-8.742.725-.436,1.813-.618,2.464-1.115.885-.753,1.642-1.756,2.584-2.416Z" transform="translate(-358.82 -206.894)" fill="#fff"/>
        <path id="Path_40" data-name="Path 40" d="M405.1,335.662c-.382-.571,1.619-6.082,1.389-7.526a28.208,28.208,0,0,1-.483-8.658,6.222,6.222,0,0,0-1.977-5.274,21.692,21.692,0,0,0-3.8-2.342,21.293,21.293,0,0,0-3.379-1.273c-3.432-.816-2.5,5.534-5.9,4.678,2.26-3.027-.885-7.888-4.427-7.69,1.811-1.273,6.162-.6,7.7.881a19.125,19.125,0,0,1,17.263,3.08c1.221.947,4.233-.436,4.943-1.543l.573-.207c.223,2.519-1.969,4.756-2.405,7.02-.346,1.9.7,4.591.464,6.79-.47,3.586-1.263,6.6-4.452,8.708a25.919,25.919,0,0,0-2.475,1.1c-.885.734-1.657,1.741-2.6,2.393Z" transform="translate(-350.727 -190.668)" fill="#fff"/>
        <path id="Path_41" data-name="Path 41" d="M404.53,308.359c.658.2,2.656,5.715,3.757,6.678a28.307,28.307,0,0,1,5.915,6.356,6.274,6.274,0,0,0,4.9,2.776,21.706,21.706,0,0,0,4.42-.635,21.46,21.46,0,0,0,3.4-1.185c3.16-1.581-1.613-5.85,1.537-7.368.2,3.769,5.728,5.494,8.331,3.078-.6,2.138-4.353,4.41-6.484,4.258a19.153,19.153,0,0,1-15.239,8.687c-1.539.057-2.97,3.046-2.816,4.351l-.308.535c-1.785-1.792-1.535-4.929-2.635-6.937-.957-1.684-3.482-3.067-4.7-4.92-1.952-3.059-3.265-5.879-2.165-9.539.282-.795,1.01-1.625,1.2-2.428.207-1.136.152-2.4.46-3.5Z" transform="translate(-333.542 -189.057)" fill="#fff"/>
      </g>
    </g>
  </g>
</svg>
